<?xml version="1.0" encoding="UTF-8"?>
<svg id="Layer_2" data-name="Layer 2" xmlns="http://www.w3.org/2000/svg" viewBox="0 0 73.78 88.74">
  <defs>
    <style>
      .cls-1 {
        fill: #fff;
      }
    </style>
  </defs>
  <g id="Layer_1-2" data-name="Layer 1">
    <g>
      <path class="cls-1" d="M55.97,22.71c1.64-1.64,1.64-4.3,0-5.94-1.64-1.64-4.29-1.64-5.94,0-1.64,1.64-1.64,4.3,0,5.94,1.64,1.64,4.3,1.64,5.94,0Z"/>
      <path class="cls-1" d="M70.58,37.4c-2.58,2.58-5.4,4.41-8.58,5.65-.08,.02-.26,.09-.42,.14-5.01,1.91-9.91,2.32-15.04,.78-2.06,1.25-6.84,1.67-10.44,1.2l-21.47,21.44-.03-.03-4.83,.36,27.47-27.42-1.61-1.61-27.48,27.47-1.31-6.57,5.45-5.46-3.62-3.63-.13-3.6,3.44-.03,3.67,3.67,3.03-3.05-2.57-2.58,.06-2.45,2.34,.09,2.69,2.69,1.51-1.52-4.37-4.34,.15-2.77,2.65-.03,4.15,4.11,2.71-2.77s-1.96-4.8,1.51-10.25c-.89-2.06-1.22-4-1.23-6.14v-.49c-.02-1.96,.34-3.62,.79-5.55,.34-1.23,.61-2.27,1.12-3.55-.02,0,.11-.21,.08-.21,1.24-3.03,3.09-5.87,5.55-8.34,.98-.98,2.02-1.85,3.11-2.64H11.07C4.95,0,0,4.95,0,11.07V62.71c0,6.11,4.95,11.07,11.07,11.07h13.04l34.1,14.96-6.51-14.96h11.01c6.11,0,11.07-4.95,11.07-11.07v-29.22c-.92,1.38-1.98,2.69-3.2,3.91Z"/>
      <path class="cls-1" d="M41.75,31.43c6.33,6.34,16.6,6.33,22.93,0,6.33-6.33,6.34-16.6,0-22.94-6.33-6.33-16.6-6.33-22.94,0-6.33,6.33-6.33,16.6,0,22.94Zm5.32-17.62c3.28-3.28,8.59-3.28,11.87,0,3.28,3.28,3.28,8.59,0,11.87-3.28,3.28-8.59,3.28-11.87,0-3.28-3.28-3.28-8.59,0-11.87Z"/>
    </g>
  </g>
</svg>